<svg width="760" height="180" viewBox="0 0 760 180" fill="none" xmlns="http://www.w3.org/2000/svg">
  <defs>
    <linearGradient id="cyanGradient" x1="22" y1="20" x2="150" y2="150">
      <stop offset="0%" stop-color="#7CF2FF"/>
      <stop offset="55%" stop-color="#9DC8FF"/>
      <stop offset="100%" stop-color="#5EE7FF"/>
    </linearGradient>

    <filter id="softGlow" x="-40%" y="-40%" width="180%" height="180%">
      <feGaussianBlur stdDeviation="6" result="blur"/>
      <feColorMatrix
        in="blur"
        type="matrix"
        values="0 0 0 0 0.486
                0 0 0 0 0.949
                0 0 0 0 1
                0 0 0 0.5 0"
        result="glow"
      />
      <feMerge>
        <feMergeNode in="glow"/>
        <feMergeNode in="SourceGraphic"/>
      </feMerge>
    </filter>
  </defs>

  <rect width="760" height="180" rx="36" fill="#050B14"/>

  <g transform="translate(34 30)">
    <rect width="120" height="120" rx="32" fill="#07111F"/>
    <circle cx="60" cy="60" r="47" fill="rgba(124,242,255,0.045)"/>

    <path
      d="M60 110C32.386 110 10 87.614 10 60C10 32.386 32.386 10 60 10C87.614 10 110 32.386 110 60C110 87.614 87.614 110 60 110ZM60 90C76.569 90 90 76.569 90 60C90 43.431 76.569 30 60 30C43.431 30 30 43.431 30 60C30 76.569 43.431 90 60 90Z"
      fill="url(#cyanGradient)"
      filter="url(#softGlow)"
    />

    <path
      d="M18 72C39 48 70 38 104 42"
      stroke="#7CF2FF"
      stroke-width="6"
      stroke-linecap="round"
      opacity="0.9"
    />

    <path
      d="M103 49C81 72 52 83 17 79"
      stroke="#9DC8FF"
      stroke-width="4.5"
      stroke-linecap="round"
      opacity="0.7"
    />

    <circle cx="60" cy="60" r="7" fill="#F7FBFF"/>
    <circle cx="60" cy="60" r="3" fill="#7CF2FF"/>

    <path
      d="M92 14L96 24L106 28L96 32L92 42L88 32L78 28L88 24L92 14Z"
      fill="#F7FBFF"
      opacity="0.9"
    />
  </g>

  <g transform="translate(184 47)">
    <text
      x="0"
      y="48"
      fill="#F7FBFF"
      font-family="Inter, Arial, sans-serif"
      font-size="46"
      font-weight="900"
      letter-spacing="-1.8"
    >
      Olympion Lab
    </text>

    <text
      x="2"
      y="86"
      fill="rgba(235,245,255,0.62)"
      font-family="Inter, Arial, sans-serif"
      font-size="17"
      font-weight="700"
      letter-spacing="0.2"
    >
      Olimpiyat Öğrenme Platformu
    </text>

    <rect x="0" y="104" width="220" height="4" rx="2" fill="#7CF2FF" opacity="0.75"/>
    <rect x="232" y="104" width="70" height="4" rx="2" fill="#9DC8FF" opacity="0.42"/>
  </g>
</svg>
