<svg width="512" height="512" viewBox="0 0 512 512" fill="none" xmlns="http://www.w3.org/2000/svg">
  <defs>
    <radialGradient id="bgGlow" cx="50%" cy="42%" r="62%">
      <stop offset="0%" stop-color="#12344A"/>
      <stop offset="55%" stop-color="#07111F"/>
      <stop offset="100%" stop-color="#050B14"/>
    </radialGradient>

    <linearGradient id="cyanGradient" x1="110" y1="110" x2="402" y2="402">
      <stop offset="0%" stop-color="#7CF2FF"/>
      <stop offset="55%" stop-color="#9DC8FF"/>
      <stop offset="100%" stop-color="#5EE7FF"/>
    </linearGradient>

    <filter id="softGlow" x="-40%" y="-40%" width="180%" height="180%">
      <feGaussianBlur stdDeviation="10" result="blur"/>
      <feColorMatrix
        in="blur"
        type="matrix"
        values="0 0 0 0 0.486
                0 0 0 0 0.949
                0 0 0 0 1
                0 0 0 0.55 0"
        result="glow"
      />
      <feMerge>
        <feMergeNode in="glow"/>
        <feMergeNode in="SourceGraphic"/>
      </feMerge>
    </filter>

    <filter id="shadow" x="-30%" y="-30%" width="160%" height="160%">
      <feDropShadow dx="0" dy="18" stdDeviation="22" flood-color="#000000" flood-opacity="0.35"/>
    </filter>
  </defs>

  <rect width="512" height="512" rx="120" fill="url(#bgGlow)"/>

  <circle cx="256" cy="256" r="170" fill="rgba(124,242,255,0.035)"/>
  <circle cx="256" cy="256" r="132" fill="rgba(255,255,255,0.025)"/>

  <g filter="url(#shadow)">
    <path
      d="M256 390C181.994 390 122 330.006 122 256C122 181.994 181.994 122 256 122C330.006 122 390 181.994 390 256C390 330.006 330.006 390 256 390ZM256 338C301.287 338 338 301.287 338 256C338 210.713 301.287 174 256 174C210.713 174 174 210.713 174 256C174 301.287 210.713 338 256 338Z"
      fill="url(#cyanGradient)"
      filter="url(#softGlow)"
    />

    <path
      d="M141 287C195 229 269 199 371 210"
      stroke="#7CF2FF"
      stroke-width="16"
      stroke-linecap="round"
      opacity="0.92"
    />

    <path
      d="M371 225C316 284 243 314 141 302"
      stroke="#9DC8FF"
      stroke-width="12"
      stroke-linecap="round"
      opacity="0.7"
    />

    <circle cx="256" cy="256" r="17" fill="#F7FBFF"/>
    <circle cx="256" cy="256" r="7" fill="#7CF2FF"/>
  </g>

  <path
    d="M358 116L367 138L389 147L367 156L358 178L349 156L327 147L349 138L358 116Z"
    fill="#F7FBFF"
    opacity="0.92"
  />

  <path
    d="M150 130L156 145L171 151L156 157L150 172L144 157L129 151L144 145L150 130Z"
    fill="#7CF2FF"
    opacity="0.7"
  />
</svg>
